<?xml version="1.0" encoding="UTF-8"?>
<svg version="1.1" xmlns="http://www.w3.org/2000/svg" width="152" height="152">
<path d="M0 0 C50.16 0 100.32 0 152 0 C152 50.16 152 100.32 152 152 C101.84 152 51.68 152 0 152 C0 101.84 0 51.68 0 0 Z " fill="#5E17EB" transform="translate(0,0)"/>
<path d="M0 0 C0.70632568 0.00563965 1.41265137 0.0112793 2.14038086 0.01708984 C10.39108097 0.20854779 16.63300408 1.88909892 22.74609375 7.5625 C25.80161359 11.27218262 27.1875 15.50019149 27.1875 20.3125 C23.8875 20.9725 20.5875 21.6325 17.1875 22.3125 C16.61 21.054375 16.0325 19.79625 15.4375 18.5 C13.4356599 14.51041726 11.66812363 12.28703071 7.4375 10.625 C0.44725359 9.65413244 -4.45210069 10.35162446 -10.8125 13.3125 C-12.97801116 16.56076674 -13.36406953 17.54344157 -12.8125 21.3125 C-9.90896939 24.89753243 -7.45409065 26.00943157 -3.015625 27.05859375 C-1.8915625 27.33896484 -0.7675 27.61933594 0.390625 27.90820312 C2.73953888 28.46568213 5.08849663 29.02297632 7.4375 29.58007812 C15.52436597 31.59717883 21.99599697 33.80184666 27.6875 40.0625 C29.97286757 45.01412973 30.17196653 49.32751325 28.45703125 54.52734375 C25.78471939 60.38461505 22.53348437 63.28006243 16.6015625 65.890625 C11.97888583 67.57729152 7.69923983 67.81155825 2.8125 67.75 C1.97759033 67.74315186 1.14268066 67.73630371 0.2824707 67.72924805 C-8.91631072 67.48988788 -16.37186383 65.06731354 -22.8125 58.3125 C-24.85710126 55.04264136 -25.91730464 52.29766366 -25.5 48.375 C-25.273125 47.694375 -25.04625 47.01375 -24.8125 46.3125 C-20.3575 45.8175 -20.3575 45.8175 -15.8125 45.3125 C-15.3175 46.55 -14.8225 47.7875 -14.3125 49.0625 C-12.2812561 53.04035264 -10.33521145 54.96182696 -6.22265625 56.69140625 C1.23715035 58.61378753 8.4922652 58.09676315 15.1875 54.3125 C17.59871859 52.35616025 17.59871859 52.35616025 17.3125 48.6875 C17.27125 47.57375 17.23 46.46 17.1875 45.3125 C11.43866602 41.6128343 5.85797967 39.93660844 -0.75 38.3125 C-16.2841196 34.47899523 -16.2841196 34.47899523 -22.25 29.125 C-25.21685212 23.78466618 -25.40008584 18.49757079 -23.875 12.625 C-21.95095361 7.57658469 -18.49935176 4.81598474 -13.8125 2.3125 C-9.19572745 0.41377101 -4.94377606 -0.04116383 0 0 Z " fill="#F8F6FE" transform="translate(74.8125,43.6875)"/>
<path d="M0 0 C50.16 0 100.32 0 152 0 C152 50.16 152 100.32 152 152 C101.84 152 51.68 152 0 152 C0 101.84 0 51.68 0 0 Z M6 10 C1.92212261 16.56092905 1.42242983 22.79435345 1.48242188 30.35961914 C1.4754126 31.45999008 1.46840332 32.56036102 1.46118164 33.69407654 C1.4436689 37.30803136 1.45520044 40.92119436 1.46875 44.53515625 C1.46605337 47.05903777 1.46216952 49.58291828 1.45715332 52.10679626 C1.45126753 57.38646432 1.45940745 62.6659288 1.47851562 67.94555664 C1.50029176 74.03228713 1.4932193 80.11848172 1.47121 86.2051993 C1.4508096 92.08442136 1.45304615 97.9634412 1.46473694 103.84267998 C1.46739959 106.33409132 1.46415078 108.82551641 1.45481873 111.3169117 C1.44462856 114.80156514 1.46018998 118.28519773 1.48242188 121.76977539 C1.47432495 122.79285797 1.46622803 123.81594055 1.45788574 124.87002563 C1.54476977 132.24333753 3.03585009 137.67691006 8 143.2421875 C8.66 143.78101563 9.32 144.31984375 10 144.875 C10.99 145.70644531 10.99 145.70644531 12 146.5546875 C15.64241756 149.18690331 18.31130521 150.24942036 22.83099365 150.26742554 C23.8009729 150.27595551 24.77095215 150.28448547 25.77032471 150.29327393 C27.35692902 150.29191437 27.35692902 150.29191437 28.97558594 150.29052734 C30.09473389 150.29724457 31.21388184 150.30396179 32.36694336 150.31088257 C36.07279889 150.32990549 39.77847366 150.33378919 43.484375 150.3359375 C46.06024246 150.34236322 48.63610918 150.34909141 51.2119751 150.35610962 C56.61562095 150.36809371 62.01919506 150.37187497 67.42285156 150.37060547 C73.65542531 150.36940548 79.88765196 150.39047954 86.12013793 150.4220928 C92.1280017 150.45147369 98.13567819 150.45857943 104.14362335 150.45738602 C106.69366115 150.459744 109.24370159 150.46857853 111.79369354 150.48405075 C115.36503196 150.50368791 118.93548264 150.49788019 122.50683594 150.48583984 C123.55647522 150.49707886 124.6061145 150.50831787 125.68756104 150.51989746 C133.01830932 150.45722542 138.23780516 149.1708872 143.98828125 144.32421875 C144.42527344 143.78410156 144.86226562 143.24398437 145.3125 142.6875 C145.76238281 142.15511719 146.21226562 141.62273437 146.67578125 141.07421875 C150.96565368 134.35468406 151.44250667 128.8189281 151.41992188 120.9909668 C151.42839142 119.90385406 151.43686096 118.81674133 151.44558716 117.69668579 C151.46892601 114.11407672 151.46997992 110.531898 151.46875 106.94921875 C151.47585404 104.44969004 151.48355339 101.95016295 151.49182129 99.45063782 C151.50525942 94.21453485 151.50702002 88.97854201 151.50097656 83.74243164 C151.49507578 78.37765069 151.50914096 73.01336392 151.54199219 67.64868164 C151.58120759 61.15660759 151.59578351 54.66495748 151.59120178 48.17276955 C151.59289038 45.70532216 151.60250768 43.2378665 151.62034607 40.77048302 C151.64259504 37.31224012 151.63280152 33.85545668 151.61523438 30.3972168 C151.62849762 29.38753342 151.64176086 28.37785004 151.65542603 27.33757019 C151.57292313 20.31244465 149.99726555 14.84126533 146 9 C138.5321469 1.79628152 131.20463583 0.70079025 121.14868164 0.7253418 C120.06664963 0.72023087 118.98461761 0.71511993 117.86979675 0.70985413 C114.29986002 0.69597587 110.73011672 0.69691353 107.16015625 0.69921875 C104.67443266 0.69533103 102.18870974 0.6909962 99.70298767 0.68623352 C94.49541062 0.67877523 89.28790137 0.67905993 84.08032227 0.68432617 C77.41109997 0.69103099 70.74219835 0.67318484 64.07300663 0.6499815 C58.94028606 0.63524163 53.80763232 0.63437279 48.67489433 0.63749123 C46.21614469 0.63697821 43.75739128 0.63174408 41.29866219 0.62167931 C37.85916276 0.60932691 34.42020383 0.61609982 30.98071289 0.62768555 C29.46167862 0.61621994 29.46167862 0.61621994 27.91195679 0.60452271 C18.81980971 0.67212863 12.21719162 3.18464203 6 10 Z " fill="#FCFAFE" transform="translate(0,0)"/>
<path d="M0 0 C0.33 0 0.66 0 1 0 C1.00146656 0.56468994 1.00293312 1.12937988 1.00444412 1.71118164 C1.04155691 15.47537353 1.10088154 29.23931701 1.18390274 43.00331116 C1.223385 49.65962093 1.25556997 56.3157456 1.27099609 62.97216797 C1.28615739 69.3978805 1.32059467 75.82322892 1.36830902 82.2487793 C1.38312805 84.69829135 1.39104131 87.14785538 1.39188385 89.59741211 C1.39425355 93.03278264 1.42133585 96.467147 1.45410156 99.90234375 C1.4490712 100.91151352 1.44404083 101.92068329 1.43885803 102.96043396 C1.5442866 110.12122023 2.98482109 115.57486255 7.78125 121.0234375 C8.3484375 121.46945313 8.915625 121.91546875 9.5 122.375 C10.35078125 123.06722656 10.35078125 123.06722656 11.21875 123.7734375 C14.77630204 126.22315535 17.42368175 127.24949121 21.77093506 127.2784729 C23.20538216 127.29521812 23.20538216 127.29521812 24.66880798 127.31230164 C25.71106033 127.31446182 26.75331268 127.31662201 27.82714844 127.31884766 C28.92988602 127.32889328 30.0326236 127.3389389 31.16877747 127.34928894 C34.81563798 127.38019279 38.46242484 127.39717631 42.109375 127.4140625 C44.63715248 127.43276833 47.16492367 127.45234129 49.69268799 127.4727478 C55.66720383 127.51888357 61.64171254 127.55626958 67.6163094 127.58942068 C74.41923348 127.62765586 81.2220621 127.67706234 88.02490568 127.72740483 C102.01653296 127.8306957 116.00822175 127.91996532 130 128 C130 128.33 130 128.66 130 129 C116.31578737 129.13167617 102.63156381 129.26214803 88.94732571 129.39115143 C82.59077335 129.45111198 76.23422522 129.51146198 69.87768555 129.57275391 C63.72441032 129.63207069 57.57112559 129.69029674 51.41783333 129.74781799 C49.08953558 129.76976482 46.76124128 129.79208145 44.43295097 129.81480408 C41.13035834 129.84696709 37.82775501 129.87772061 34.52514648 129.90820312 C33.59795807 129.91755386 32.67076965 129.9269046 31.71548462 129.9365387 C20.80959814 130.03412386 9.90782415 130 -1 130 C-0.67 87.1 -0.34 44.2 0 0 Z " fill="#F5F0FD" transform="translate(1,22)"/>
</svg>
