<svg xmlns="http://www.w3.org/2000/svg" xmlns:xlink="http://www.w3.org/1999/xlink" width="174" zoomAndPan="magnify" viewBox="0 0 130.5 180.749999" height="241" preserveAspectRatio="xMidYMid meet" version="1.0"><defs><g/><clipPath id="cdfa618a38"><path d="M 0 0.21875 L 130 0.21875 L 130 180.28125 L 0 180.28125 Z M 0 0.21875 " clip-rule="nonzero"/></clipPath><clipPath id="ba00bdec78"><path d="M 8.746094 39.335938 L 120.816406 39.335938 L 120.816406 151.40625 L 8.746094 151.40625 Z M 8.746094 39.335938 " clip-rule="nonzero"/></clipPath><clipPath id="035fadd19c"><path d="M 25.929688 39.335938 L 103.632812 39.335938 C 108.191406 39.335938 112.5625 41.144531 115.785156 44.367188 C 119.007812 47.589844 120.816406 51.960938 120.816406 56.519531 L 120.816406 134.222656 C 120.816406 138.777344 119.007812 143.148438 115.785156 146.371094 C 112.5625 149.59375 108.191406 151.40625 103.632812 151.40625 L 25.929688 151.40625 C 21.371094 151.40625 17.003906 149.59375 13.78125 146.371094 C 10.558594 143.148438 8.746094 138.777344 8.746094 134.222656 L 8.746094 56.519531 C 8.746094 51.960938 10.558594 47.589844 13.78125 44.367188 C 17.003906 41.144531 21.371094 39.335938 25.929688 39.335938 Z M 25.929688 39.335938 " clip-rule="nonzero"/></clipPath></defs><g clip-path="url(#cdfa618a38)"><path fill="#ffffff" d="M 0 0.21875 L 130 0.21875 L 130 180.28125 L 0 180.28125 Z M 0 0.21875 " fill-opacity="1" fill-rule="nonzero"/></g><g clip-path="url(#ba00bdec78)"><g clip-path="url(#035fadd19c)"><path fill="#5e17eb" d="M 8.746094 39.335938 L 120.816406 39.335938 L 120.816406 151.40625 L 8.746094 151.40625 Z M 8.746094 39.335938 " fill-opacity="1" fill-rule="nonzero"/></g></g><g fill="#ffffff" fill-opacity="1"><g transform="translate(40.27216, 120.873298)"><g><path d="M 25.0625 1.21875 C 21.707031 1.21875 18.738281 0.859375 16.15625 0.140625 C 13.582031 -0.578125 11.410156 -1.601562 9.640625 -2.9375 C 7.867188 -4.269531 6.515625 -5.882812 5.578125 -7.78125 C 4.648438 -9.675781 4.1875 -11.800781 4.1875 -14.15625 L 11.359375 -15.9375 C 11.296875 -13.757812 11.820312 -11.910156 12.9375 -10.390625 C 14.0625 -8.867188 15.691406 -7.703125 17.828125 -6.890625 C 19.972656 -6.085938 22.539062 -5.6875 25.53125 -5.6875 C 29.25 -5.6875 32.117188 -6.304688 34.140625 -7.546875 C 36.160156 -8.785156 37.171875 -10.492188 37.171875 -12.671875 C 37.171875 -14.410156 36.609375 -15.757812 35.484375 -16.71875 C 34.367188 -17.6875 32.816406 -18.445312 30.828125 -19 C 28.847656 -19.5625 26.550781 -20.125 23.9375 -20.6875 C 21.644531 -21.175781 19.378906 -21.734375 17.140625 -22.359375 C 14.898438 -22.984375 12.863281 -23.804688 11.03125 -24.828125 C 9.207031 -25.847656 7.734375 -27.179688 6.609375 -28.828125 C 5.492188 -30.472656 4.9375 -32.570312 4.9375 -35.125 C 4.9375 -38.039062 5.710938 -40.550781 7.265625 -42.65625 C 8.816406 -44.769531 11.019531 -46.414062 13.875 -47.59375 C 16.738281 -48.78125 20.15625 -49.375 24.125 -49.375 C 28.039062 -49.375 31.410156 -48.765625 34.234375 -47.546875 C 37.054688 -46.335938 39.273438 -44.628906 40.890625 -42.421875 C 42.503906 -40.222656 43.40625 -37.601562 43.59375 -34.5625 L 36.234375 -32.796875 C 36.171875 -34.898438 35.628906 -36.679688 34.609375 -38.140625 C 33.585938 -39.609375 32.144531 -40.695312 30.28125 -41.40625 C 28.414062 -42.125 26.238281 -42.484375 23.75 -42.484375 C 20.457031 -42.484375 17.863281 -41.859375 15.96875 -40.609375 C 14.082031 -39.367188 13.140625 -37.664062 13.140625 -35.5 C 13.140625 -33.820312 13.710938 -32.484375 14.859375 -31.484375 C 16.003906 -30.492188 17.554688 -29.734375 19.515625 -29.203125 C 21.472656 -28.671875 23.691406 -28.128906 26.171875 -27.578125 C 28.597656 -27.078125 30.941406 -26.515625 33.203125 -25.890625 C 35.472656 -25.273438 37.507812 -24.46875 39.3125 -23.46875 C 41.113281 -22.476562 42.539062 -21.160156 43.59375 -19.515625 C 44.65625 -17.867188 45.1875 -15.742188 45.1875 -13.140625 C 45.1875 -10.035156 44.347656 -7.410156 42.671875 -5.265625 C 40.992188 -3.117188 38.660156 -1.5 35.671875 -0.40625 C 32.691406 0.675781 29.15625 1.21875 25.0625 1.21875 Z M 25.0625 1.21875 "/></g></g></g></svg>